<svg width="474" height="447" viewBox="0 0 474 447" fill="none" xmlns="http://www.w3.org/2000/svg">
<path fill="#7DE868" d="M454.625 233.151C437.414 203.077 410.434 180.909 377.873 169.592C377.563 169.592 377.253 169.437 376.942 169.282C383.3 135.333 377.408 100.143 360.196 70.689C348.102 49.9162 330.581 31.9338 308.253 19.067C240.028 -20.1533 152.577 3.25489 113.193 71.4641C95.8265 101.538 90.2445 135.953 96.7568 169.592C96.7568 169.592 96.4467 169.592 96.2917 169.592C63.5749 181.064 36.2851 204.007 19.384 233.616C7.44475 254.544 0.777344 278.727 0.777344 304.461C1.08746 383.211 65.4355 447.08 144.049 446.77C178.626 446.77 211.343 434.213 237.237 411.58C263.442 434.213 296.779 446.77 330.891 446.77C354.924 446.77 379.268 440.724 401.596 427.857C469.976 388.637 493.699 301.205 454.47 232.996L454.625 233.151ZM386.246 401.194C347.792 423.207 302.826 417.626 277.707 401.659C249.952 383.987 196.613 331.744 196.613 331.744C200.954 323.528 203.59 314.227 203.59 304.151C203.59 292.679 200.179 281.983 194.597 272.836C193.822 271.596 193.046 270.356 192.271 269.271C181.417 254.079 163.586 244.003 143.584 244.003C143.584 244.003 143.273 244.003 143.118 244.003C121.256 244.003 102.339 256.094 91.9501 273.612C86.6782 282.603 83.422 292.834 83.422 303.996C83.422 315.157 86.6782 325.389 91.9501 334.38C102.494 352.052 121.566 364.144 143.584 364.144C155.523 364.144 166.532 360.578 175.835 354.533C175.835 354.533 195.372 372.205 214.599 390.187C212.583 391.893 210.413 393.443 208.242 394.993C189.635 408.325 167.307 415.611 143.894 415.766C82.1816 415.921 31.9435 366.004 31.6334 304.306C31.6334 260.125 58.6131 223.695 84.9725 209.743C114.123 194.241 185.759 173.778 185.759 173.778C190.876 181.684 197.543 188.505 206.226 193.466C216.305 199.201 227.159 201.527 237.857 201.062C239.253 201.062 240.648 201.062 242.044 200.752C260.651 198.736 278.172 188.35 288.095 170.833C288.095 170.833 288.095 170.523 288.251 170.523C298.949 151.455 297.864 129.132 287.785 111.46C282.669 102.468 275.226 94.5623 265.612 88.9815C255.999 83.5558 245.3 81.2305 234.911 81.3855C214.289 81.6955 194.442 92.392 183.588 111.46C177.696 121.846 175.37 133.163 175.99 144.324C175.99 144.324 151.336 152.385 126.372 160.291C125.907 157.811 125.597 155.331 125.442 152.695C123.271 129.907 128.078 106.964 139.862 86.6562C170.718 33.329 239.098 14.8815 292.592 45.5756C330.891 67.7436 348.722 109.289 347.637 139.208C346.396 172.073 328.1 244.468 328.1 244.468C318.797 244.933 309.338 247.258 300.81 252.219C290.887 257.954 283.444 266.326 278.327 275.782C277.707 277.022 276.931 278.262 276.466 279.502C268.869 296.555 269.024 317.017 279.257 334.38C279.257 334.38 279.412 334.535 279.567 334.69C290.731 353.447 310.579 363.834 330.891 363.989C341.28 363.989 351.823 361.663 361.437 356.083C371.05 350.502 378.338 342.441 383.455 333.45C393.533 315.467 394.309 292.989 383.145 273.922C377.097 263.69 368.569 255.939 358.646 250.823C358.646 250.823 364.073 224.935 369.965 199.201C372.756 200.287 375.392 201.372 378.028 202.612C398.805 212.223 416.171 228.035 427.801 248.343C458.502 301.825 439.895 370.19 386.401 400.884L386.246 401.194ZM172.579 304.151C172.579 320.118 159.554 333.295 143.429 333.295C127.303 333.295 114.278 320.273 114.278 304.151C114.278 288.029 127.303 275.007 143.429 275.007C159.554 275.007 172.579 288.029 172.579 304.151ZM210.723 127.117C218.631 113.165 236.462 108.359 250.417 116.265C264.372 124.171 269.334 141.999 261.271 155.951C253.363 169.902 235.532 174.863 221.577 166.802C207.622 158.896 202.815 141.069 210.723 127.117ZM356.165 289.734C364.228 303.531 359.576 321.358 345.621 329.574C331.821 337.635 313.835 332.985 305.772 319.033C297.709 305.236 302.361 287.253 316.316 279.192C330.116 271.131 347.947 275.782 356.165 289.734Z"/>
</svg>