<svg width="389" height="388" viewBox="0 0 389 388" fill="none" xmlns="http://www.w3.org/2000/svg">
<path d="M372.243 286.884C361.39 275.102 346.504 268.126 330.533 267.506C318.904 267.041 307.74 269.987 297.972 275.567L246.183 223.79C250.99 215.574 253.936 206.273 254.401 196.507C255.021 185.035 252.075 173.719 246.338 163.952L298.127 112.175C307.43 117.446 317.664 120.391 328.053 120.391C342.628 120.391 357.203 115.121 368.677 104.579C393.021 82.1011 394.726 44.1209 372.243 19.6276C361.39 7.84601 346.504 0.870069 330.533 0.249985C314.563 -0.525121 299.212 5.21072 287.273 16.0622C275.489 26.9137 268.511 41.7956 267.891 57.7628C267.426 69.3893 270.372 80.5509 275.954 90.3173L224.165 142.094C215.947 137.289 206.644 134.343 196.72 133.878C184.936 133.413 173.772 136.513 164.159 141.939L112.215 90.0072C117.487 80.7059 120.433 70.4745 120.433 60.0881C120.433 45.5161 115.161 30.9441 104.617 19.4726C82.1342 -4.86574 44.1456 -6.57091 19.6468 15.9071C7.86256 26.7586 0.885054 41.6407 0.264831 57.6078C-0.510448 73.575 5.22662 88.922 16.0805 100.859C26.9344 112.64 41.8197 119.616 57.7905 120.236C69.4196 120.701 80.5837 117.756 90.3522 112.175L142.141 163.952C137.489 172.013 134.388 181.315 133.923 191.236C133.923 192.166 133.923 192.941 133.923 193.871C133.923 204.568 136.869 214.799 142.141 223.79L90.3522 275.567C68.1792 262.856 39.649 265.026 19.8019 283.163C-4.54186 305.641 -6.24753 343.622 16.2355 368.115C27.0894 379.896 41.9748 386.872 57.9456 387.492C58.8759 387.492 59.6511 387.492 60.5815 387.492C75.6219 387.492 90.0421 381.912 101.206 371.68C112.99 360.829 119.968 345.947 120.588 329.98C121.053 318.353 118.107 307.192 112.525 297.425L164.314 245.648C172.532 250.454 181.835 253.399 191.604 253.864C203.233 254.329 214.397 251.539 224.165 245.803L275.954 297.58C263.239 319.748 265.41 348.272 283.552 368.115C306.035 392.453 344.023 394.158 368.522 371.68C380.306 360.829 387.284 345.947 387.904 329.98C387.904 329.05 387.904 328.274 387.904 327.344C387.904 312.307 382.322 297.89 372.088 286.729L372.243 286.884ZM308.36 38.8502C313.787 33.8895 320.765 31.0991 328.053 31.0991C328.518 31.0991 328.828 31.0991 329.293 31.0991C337.046 31.4092 344.178 34.8196 349.45 40.5554C360.304 52.337 359.529 70.7845 347.745 81.636C335.96 92.4875 317.509 91.7124 306.655 79.9308C301.383 74.195 298.747 66.754 299.057 59.003C299.367 51.2519 302.778 44.1209 308.516 38.8502H308.36ZM80.2736 81.636C74.5365 86.9067 67.0938 89.5421 59.3411 89.232C51.5883 88.922 44.4557 85.5116 39.1838 79.7758C34.2221 74.3501 31.4311 67.3741 31.4311 60.0881C31.4311 59.623 31.4311 59.313 31.4311 58.8479C31.7412 51.0969 35.1523 43.966 40.8894 38.6952C52.6736 27.8438 71.1253 28.6189 81.9792 40.4005C92.8331 52.1821 92.0578 70.6295 80.2736 81.481V81.636ZM80.2736 348.892C74.5365 354.163 67.2489 356.798 59.3411 356.488C51.5883 356.178 44.4557 352.768 39.1838 347.032C28.3299 335.25 29.1052 316.803 40.8894 305.951C46.4714 300.836 53.4489 298.355 60.5815 298.355C68.4893 298.355 76.2421 301.456 81.9792 307.812C87.2511 313.547 89.887 320.988 89.5769 328.74C89.2668 336.491 85.8556 343.621 80.1185 348.892H80.2736ZM223.39 194.956C223.39 196.662 223.08 198.522 222.615 200.072C221.374 205.808 218.428 211.079 213.932 215.109C210.055 218.675 205.559 220.845 200.597 221.93C198.116 222.55 195.635 222.86 192.999 222.705C191.293 222.705 189.588 222.395 187.882 221.93C182.145 220.69 176.873 217.744 172.842 213.249C169.276 209.373 167.105 204.878 166.019 199.917C165.399 197.437 165.089 194.956 165.244 192.321C165.244 190.616 165.554 188.911 166.019 187.205C167.26 181.47 170.206 176.199 174.702 172.168C178.579 168.603 183.075 166.433 188.037 165.347C190.518 164.727 192.999 164.417 195.635 164.572C197.341 164.572 199.201 164.882 200.907 165.347C206.644 166.588 211.916 169.533 215.947 174.029C219.514 177.904 221.684 182.4 222.925 187.36C223.39 189.376 223.7 191.546 223.7 193.716C223.7 194.181 223.7 194.491 223.7 194.956H223.39ZM347.745 348.892C335.96 359.744 317.509 358.969 306.655 347.187C301.538 341.606 299.057 334.63 299.057 327.499C299.057 319.593 302.158 311.842 308.516 306.106C314.253 300.836 321.695 298.2 329.448 298.51C337.201 298.82 344.333 302.231 349.605 307.967C354.877 313.702 357.513 320.989 357.203 328.895C356.893 336.646 353.482 343.777 347.745 349.047V348.892Z" fill="black"/>
</svg>
